<svg xmlns="http://www.w3.org/2000/svg" viewBox="0 0 640 320">
  <defs>
    <linearGradient id="g" x1="0" y1="0" x2="1" y2="1">
      <stop offset="0%" stop-color="#4f46e5" />
      <stop offset="100%" stop-color="#7c3aed" />
    </linearGradient>
  </defs>
  <rect width="640" height="320" rx="24" fill="url(#g)" />
  <circle cx="70" cy="55" r="90" fill="#ffffff" opacity="0.08" />
  <circle cx="575" cy="275" r="115" fill="#ffffff" opacity="0.08" />
  <circle cx="320" cy="160" r="80" fill="#ffffff" />
  <rect x="280" y="150" width="24" height="52" fill="#c7d2fe" />
  <rect x="308" y="128" width="28" height="74" fill="#4f46e5" />
  <rect x="340" y="142" width="22" height="60" fill="#c7d2fe" />
  <rect x="286" y="158" width="6" height="6" fill="#ffffff" />
  <rect x="286" y="172" width="6" height="6" fill="#ffffff" />
  <rect x="314" y="136" width="6" height="6" fill="#ffffff" />
  <rect x="326" y="136" width="6" height="6" fill="#ffffff" />
  <rect x="314" y="150" width="6" height="6" fill="#ffffff" />
  <rect x="326" y="150" width="6" height="6" fill="#ffffff" />
  <rect x="346" y="150" width="6" height="6" fill="#ffffff" />
  <rect x="346" y="164" width="6" height="6" fill="#ffffff" />
</svg>
